<mxfile host="app.diagrams.net" modified="2023-09-16T20:54:29.025Z" agent="Mozilla/5.0 (Windows NT 10.0; Win64; x64) AppleWebKit/537.36 (KHTML, like Gecko) Chrome/117.0.0.0 Safari/537.36" version="21.7.5" etag="voI3Gn0QJwOj_orGfE4j" type="github">
  <diagram name="Страница — 1" id="k5Qhd9W-toda54aZ22Ic">
    <mxGraphModel>
      <root>
        <mxCell id="0" />
        <mxCell id="1" parent="0" />
      </root>
    </mxGraphModel>
  </diagram>
</mxfile>
